<svg width="179" height="44" viewBox="0 0 179 44" fill="none" xmlns="http://www.w3.org/2000/svg">
<path d="M61.769 22.325C62.4002 21.3572 63.1892 20.5998 64.136 20.0528C65.0827 19.4847 66.1347 19.2007 67.2919 19.2007V24.9129H65.8086C64.4621 24.9129 63.4522 25.2074 62.7789 25.7965C62.1057 26.3646 61.769 27.3745 61.769 28.8262V37H56.3724V19.39H61.769V22.325ZM75.9938 37.2525C74.2686 37.2525 72.7116 36.8843 71.323 36.1479C69.9555 35.4115 68.872 34.3596 68.0725 32.992C67.294 31.6244 66.9048 30.0254 66.9048 28.195C66.9048 26.3856 67.3045 24.7972 68.104 23.4296C68.9035 22.041 69.9976 20.9785 71.3862 20.2421C72.7748 19.5058 74.3317 19.1376 76.0569 19.1376C77.7821 19.1376 79.339 19.5058 80.7276 20.2421C82.1162 20.9785 83.2103 22.041 84.0098 23.4296C84.8093 24.7972 85.209 26.3856 85.209 28.195C85.209 30.0044 84.7988 31.6034 83.9782 32.992C83.1787 34.3596 82.0742 35.4115 80.6645 36.1479C79.2759 36.8843 77.719 37.2525 75.9938 37.2525ZM75.9938 32.5817C77.0247 32.5817 77.8978 32.203 78.6132 31.4456C79.3496 30.6882 79.7178 29.6047 79.7178 28.195C79.7178 26.7854 79.3601 25.7019 78.6447 24.9444C77.9504 24.187 77.0878 23.8083 76.0569 23.8083C75.0049 23.8083 74.1318 24.187 73.4375 24.9444C72.7432 25.6808 72.3961 26.7643 72.3961 28.195C72.3961 29.6047 72.7327 30.6882 73.4059 31.4456C74.1002 32.203 74.9629 32.5817 75.9938 32.5817ZM85.1055 28.195C85.1055 26.3646 85.4737 24.7656 86.21 23.398C86.9675 22.0305 88.0089 20.9785 89.3344 20.2421C90.6809 19.5058 92.2168 19.1376 93.942 19.1376C96.1511 19.1376 97.9921 19.7162 99.4648 20.8733C100.959 22.0305 101.937 23.661 102.4 25.765H96.6561C96.1722 24.4185 95.2359 23.7452 93.8473 23.7452C92.8585 23.7452 92.0695 24.1344 91.4804 24.9129C90.8913 25.6703 90.5968 26.7643 90.5968 28.195C90.5968 29.6257 90.8913 30.7303 91.4804 31.5087C92.0695 32.2661 92.8585 32.6448 93.8473 32.6448C95.2359 32.6448 96.1722 31.9716 96.6561 30.6251H102.4C101.937 32.6869 100.959 34.307 99.4648 35.4852C97.9711 36.6634 96.1301 37.2525 93.942 37.2525C92.2168 37.2525 90.6809 36.8843 89.3344 36.1479C88.0089 35.4115 86.9675 34.3596 86.21 32.992C85.4737 31.6244 85.1055 30.0254 85.1055 28.195ZM114.155 37L108.79 29.6152V37H103.393V13.6463H108.79V26.554L114.123 19.39H120.782L113.46 28.2266L120.845 37H114.155ZM119.935 28.1635C119.935 26.3541 120.272 24.7656 120.945 23.398C121.639 22.0305 122.576 20.9785 123.754 20.2421C124.932 19.5058 126.247 19.1376 127.699 19.1376C128.94 19.1376 130.023 19.39 130.949 19.895C131.896 20.3999 132.622 21.0627 133.127 21.8832V19.39H138.523V37H133.127V34.5068C132.601 35.3274 131.864 35.9901 130.918 36.4951C129.992 37 128.908 37.2525 127.667 37.2525C126.236 37.2525 124.932 36.8843 123.754 36.1479C122.576 35.3905 121.639 34.328 120.945 32.9604C120.272 31.5718 119.935 29.9728 119.935 28.1635ZM133.127 28.195C133.127 26.8485 132.748 25.786 131.991 25.0076C131.254 24.2291 130.35 23.8399 129.277 23.8399C128.204 23.8399 127.288 24.2291 126.531 25.0076C125.795 25.765 125.426 26.8169 125.426 28.1635C125.426 29.51 125.795 30.583 126.531 31.3825C127.288 32.1609 128.204 32.5502 129.277 32.5502C130.35 32.5502 131.254 32.1609 131.991 31.3825C132.748 30.604 133.127 29.5415 133.127 28.195ZM145.931 13.6463V37H140.534V13.6463H145.931ZM153.345 13.6463V37H147.948V13.6463H153.345ZM172.79 37L169.413 32.1083L166.572 37H160.734L166.541 28.0057L160.576 19.39H166.636L170.012 24.2501L172.853 19.39H178.691L172.79 28.2581L178.849 37H172.79Z" fill="#0D114F"/>
<path d="M157.887 37.2525C156.94 37.2525 156.161 36.979 155.551 36.4319C154.962 35.8639 154.668 35.1696 154.668 34.349C154.668 33.5075 154.962 32.8026 155.551 32.2346C156.161 31.6665 156.94 31.3825 157.887 31.3825C158.812 31.3825 159.57 31.6665 160.159 32.2346C160.769 32.8026 161.074 33.5075 161.074 34.349C161.074 35.1696 160.769 35.8639 160.159 36.4319C159.57 36.979 158.812 37.2525 157.887 37.2525Z" fill="url(#paint0_linear)"/>
<rect width="43.832" height="43.832" rx="7.88976" fill="url(#paint1_linear)"/>
<g filter="url(#filter0_di)">
<path d="M33.258 32.4131H29.3487C29.1852 32.4131 29.0508 32.2854 29.0363 32.1226C29.0317 32.0711 29.0267 32.0211 29.0214 31.9726C28.7973 29.9298 26.5982 28.1753 24.5583 28.4238C23.0692 28.6052 21.8351 29.7293 20.3445 29.8976C19.3393 30.0111 18.4621 29.9594 17.4596 29.7629C16.5809 29.5908 15.7327 29.2757 14.952 28.8372C13.1132 27.8044 12.126 26.741 11.2107 25.1387C10.681 24.2114 10.303 23.1958 10.1655 22.1368C10.0517 21.2603 10.0589 20.4879 10.1544 19.6373C10.3004 18.3379 10.7168 17.0732 11.3964 15.956C12.3504 14.3877 13.3816 13.4126 15.0616 12.4997C15.7731 12.1131 16.5387 11.8305 17.3296 11.6568C19.3324 11.2169 20.629 11.3458 22.5759 11.956C23.6591 12.2955 24.8356 13.023 25.8362 13.9723C28.0243 16.0482 28.1911 19.3058 28.2464 22.3215C28.2516 22.601 27.996 22.8125 27.7209 22.7627C26.3696 22.5184 25.3981 22.4987 24.0703 22.7098C23.7143 22.7664 23.4214 22.398 23.5175 22.0506C23.5591 21.8998 23.5918 21.7518 23.6163 21.6059C24.0088 19.2711 22.4111 16.606 20.0547 16.3763C18.718 16.246 17.3943 16.7918 16.4138 17.8864C15.8286 18.4381 15.5049 19.3034 15.4028 20.2262C15.1383 22.6173 17.0941 24.9295 19.497 25.0439C19.9555 25.0657 20.3982 24.999 20.8505 24.8457C22.2759 24.3625 23.6654 23.6404 25.1662 23.7534C29.6812 24.0934 32.8523 26.1289 33.6866 31.9218C33.724 32.1814 33.5203 32.4131 33.258 32.4131Z" fill="#FAFAFA"/>
</g>
<defs>
<filter id="filter0_di" x="8.44906" y="11.3964" width="26.8744" height="24.2814" filterUnits="userSpaceOnUse" color-interpolation-filters="sRGB">
<feFlood flood-opacity="0" result="BackgroundImageFix"/>
<feColorMatrix in="SourceAlpha" type="matrix" values="0 0 0 0 0 0 0 0 0 0 0 0 0 0 0 0 0 0 127 0"/>
<feOffset dy="1.63237"/>
<feGaussianBlur stdDeviation="0.816183"/>
<feColorMatrix type="matrix" values="0 0 0 0 0 0 0 0 0 0 0 0 0 0 0 0 0 0 0.07 0"/>
<feBlend mode="normal" in2="BackgroundImageFix" result="effect1_dropShadow"/>
<feBlend mode="normal" in="SourceGraphic" in2="effect1_dropShadow" result="shape"/>
<feColorMatrix in="SourceAlpha" type="matrix" values="0 0 0 0 0 0 0 0 0 0 0 0 0 0 0 0 0 0 127 0" result="hardAlpha"/>
<feOffset dy="1.63237"/>
<feGaussianBlur stdDeviation="1.02023"/>
<feComposite in2="hardAlpha" operator="arithmetic" k2="-1" k3="1"/>
<feColorMatrix type="matrix" values="0 0 0 0 0.219608 0 0 0 0 0.533333 0 0 0 0 1 0 0 0 0.13 0"/>
<feBlend mode="normal" in2="shape" result="effect2_innerShadow"/>
</filter>
<linearGradient id="paint0_linear" x1="204.03" y1="-69.1001" x2="189.865" y2="62.5984" gradientUnits="userSpaceOnUse">
<stop stop-color="#F1FF54"/>
<stop offset="0.515625" stop-color="#428EFF"/>
<stop offset="1" stop-color="#297FFF"/>
</linearGradient>
<linearGradient id="paint1_linear" x1="52.463" y1="-66.3077" x2="19.6129" y2="48.5381" gradientUnits="userSpaceOnUse">
<stop stop-color="#F1FF54"/>
<stop offset="0.515625" stop-color="#F1FF54"/>
<stop offset="1" stop-color="#F1FF54"/>
</linearGradient>
</defs>
</svg>
