<svg width="167" height="44" viewBox="0 0 167 44" fill="none" xmlns="http://www.w3.org/2000/svg">
<path d="M60.9495 19.0234C60.5694 19.0234 60.2098 19.0953 59.8708 19.2391C59.5421 19.383 59.2544 19.5782 59.0079 19.8247C58.7613 20.0713 58.5661 20.364 58.4223 20.7031C58.2785 21.0318 58.2066 21.3862 58.2066 21.7663V33H56.3112V17.2205H56.943L57.9754 18.8231C58.4069 18.2375 58.9462 17.7752 59.5934 17.4362C60.2509 17.0869 60.9649 16.9123 61.7354 16.9123H62.8449V19.0234H60.9495ZM74.0188 28.6699C74.0188 29.3068 73.8955 29.9078 73.6489 30.4728C73.4126 31.0378 73.0839 31.5309 72.6627 31.9521C72.2415 32.3733 71.7484 32.7072 71.1834 32.9538C70.6183 33.1901 70.0174 33.3082 69.3804 33.3082H68.1168C67.4799 33.3082 66.8789 33.1901 66.3139 32.9538C65.7489 32.7072 65.2558 32.3733 64.8346 31.9521C64.4134 31.5309 64.0795 31.0378 63.8329 30.4728C63.5967 29.9078 63.4785 29.3068 63.4785 28.6699V21.5506C63.4785 20.9137 63.5967 20.3127 63.8329 19.7477C64.0795 19.1826 64.4134 18.6895 64.8346 18.2683C65.2558 17.8471 65.7489 17.5184 66.3139 17.2821C66.8789 17.0356 67.4799 16.9123 68.1168 16.9123H69.3804C70.0174 16.9123 70.6183 17.0356 71.1834 17.2821C71.7484 17.5184 72.2415 17.8471 72.6627 18.2683C73.0839 18.6895 73.4126 19.1826 73.6489 19.7477C73.8955 20.3127 74.0188 20.9137 74.0188 21.5506V28.6699ZM72.1234 21.4427C72.1234 21.0626 72.0514 20.7082 71.9076 20.3795C71.7638 20.0404 71.5686 19.7477 71.3221 19.5011C71.0755 19.2546 70.7827 19.0594 70.4437 18.9155C70.115 18.7717 69.7605 18.6998 69.3804 18.6998H68.1168C67.7367 18.6998 67.3772 18.7717 67.0382 18.9155C66.7094 19.0594 66.4218 19.2546 66.1752 19.5011C65.9287 19.7477 65.7335 20.0404 65.5897 20.3795C65.4458 20.7082 65.3739 21.0626 65.3739 21.4427V28.7777C65.3739 29.1578 65.4458 29.5174 65.5897 29.8564C65.7335 30.1852 65.9287 30.4728 66.1752 30.7194C66.4218 30.9659 66.7094 31.1611 67.0382 31.3049C67.3772 31.4488 67.7367 31.5207 68.1168 31.5207H69.3804C69.7605 31.5207 70.115 31.4488 70.4437 31.3049C70.7827 31.1611 71.0755 30.9659 71.3221 30.7194C71.5686 30.4728 71.7638 30.1852 71.9076 29.8564C72.0514 29.5174 72.1234 29.1578 72.1234 28.7777V21.4427ZM86.4562 28.6699C86.4562 29.3068 86.333 29.9078 86.0864 30.4728C85.8501 31.0378 85.5214 31.5309 85.1002 31.9521C84.679 32.3733 84.1859 32.7072 83.6208 32.9538C83.0558 33.1901 82.4548 33.3082 81.8179 33.3082H80.5543C79.9174 33.3082 79.3164 33.1901 78.7514 32.9538C78.1864 32.7072 77.6932 32.3733 77.272 31.9521C76.8509 31.5309 76.517 31.0378 76.2704 30.4728C76.0341 29.9078 75.916 29.3068 75.916 28.6699V21.5506C75.916 20.9137 76.0341 20.3127 76.2704 19.7477C76.517 19.1826 76.8509 18.6895 77.272 18.2683C77.6932 17.8471 78.1864 17.5184 78.7514 17.2821C79.3164 17.0356 79.9174 16.9123 80.5543 16.9123H81.8179C82.4548 16.9123 83.0558 17.0356 83.6208 17.2821C84.1859 17.5184 84.679 17.8471 85.1002 18.2683C85.5214 18.6895 85.8501 19.1826 86.0864 19.7477C86.333 20.3127 86.4562 20.9137 86.4562 21.5506V22.1824L84.5608 22.4906V21.4427C84.5608 21.0626 84.4889 20.7082 84.3451 20.3795C84.2013 20.0404 84.0061 19.7477 83.7595 19.5011C83.513 19.2546 83.2202 19.0594 82.8812 18.9155C82.5524 18.7717 82.198 18.6998 81.8179 18.6998H80.5543C80.1742 18.6998 79.8146 18.7717 79.4756 18.9155C79.1469 19.0594 78.8592 19.2546 78.6127 19.5011C78.3661 19.7477 78.1709 20.0404 78.0271 20.3795C77.8833 20.7082 77.8114 21.0626 77.8114 21.4427V28.7777C77.8114 29.1578 77.8833 29.5174 78.0271 29.8564C78.1709 30.1852 78.3661 30.4728 78.6127 30.7194C78.8592 30.9659 79.1469 31.1611 79.4756 31.3049C79.8146 31.4488 80.1742 31.5207 80.5543 31.5207H81.8179C82.198 31.5207 82.5524 31.4488 82.8812 31.3049C83.2202 31.1611 83.513 30.9659 83.7595 30.7194C84.0061 30.4728 84.2013 30.1852 84.3451 29.8564C84.4889 29.5174 84.5608 29.1578 84.5608 28.7777V27.7299L86.4562 28.0381V28.6699ZM97.3836 33L90.9423 25.1102L97.3836 17.2205H99.8491L93.2538 25.1102L99.8491 33H97.3836ZM88.6771 33V10.9025H90.5725V33H88.6771ZM110.391 33L109.343 31.4282C108.912 31.9932 108.373 32.4504 107.725 32.7997C107.078 33.1387 106.369 33.3082 105.599 33.3082H105.121C104.484 33.3082 103.883 33.1901 103.318 32.9538C102.753 32.7072 102.26 32.3733 101.839 31.9521C101.418 31.5309 101.084 31.0378 100.837 30.4728C100.601 29.9078 100.483 29.3068 100.483 28.6699V28.5158C100.483 27.8788 100.601 27.2779 100.837 26.7128C101.084 26.1478 101.418 25.6547 101.839 25.2335C102.26 24.8123 102.753 24.4836 103.318 24.2473C103.883 24.0007 104.484 23.8775 105.121 23.8775H109.128V21.4427C109.128 21.0626 109.056 20.7082 108.912 20.3795C108.768 20.0404 108.573 19.7477 108.326 19.5011C108.08 19.2546 107.787 19.0594 107.448 18.9155C107.119 18.7717 106.765 18.6998 106.385 18.6998H105.275C104.895 18.6998 104.535 18.7717 104.196 18.9155C103.868 19.0594 103.58 19.2546 103.334 19.5011C103.087 19.7477 102.892 20.0404 102.748 20.3795C102.604 20.7082 102.532 21.0626 102.532 21.4427V22.0129L100.637 21.7047V21.5506C100.637 20.9137 100.755 20.3127 100.991 19.7477C101.238 19.1826 101.572 18.6895 101.993 18.2683C102.414 17.8471 102.907 17.5184 103.472 17.2821C104.037 17.0356 104.638 16.9123 105.275 16.9123H106.385C107.022 16.9123 107.623 17.0356 108.188 17.2821C108.753 17.5184 109.246 17.8471 109.667 18.2683C110.088 18.6895 110.417 19.1826 110.653 19.7477C110.9 20.3127 111.023 20.9137 111.023 21.5506V33H110.391ZM109.128 25.3568H105.121C104.741 25.3568 104.381 25.4287 104.042 25.5725C103.714 25.7164 103.426 25.9167 103.179 26.1735C102.933 26.4201 102.738 26.7128 102.594 27.0519C102.45 27.3806 102.378 27.735 102.378 28.1151V28.7777C102.378 29.1578 102.45 29.5174 102.594 29.8564C102.738 30.1852 102.933 30.4728 103.179 30.7194C103.426 30.9659 103.714 31.1611 104.042 31.3049C104.381 31.4488 104.741 31.5207 105.121 31.5207H106.385C106.765 31.5207 107.119 31.4488 107.448 31.3049C107.787 31.1611 108.08 30.9659 108.326 30.7194C108.573 30.4728 108.768 30.1852 108.912 29.8564C109.056 29.5174 109.128 29.1578 109.128 28.7777V25.3568ZM113.552 33V10.9025H115.447V33H113.552ZM118.624 33V10.9025H120.519V33H118.624ZM136.117 33L132.743 26.944L129.368 33H127.318L131.741 25.1102L127.318 17.2205H129.368L132.743 23.2765L136.117 17.2205H138.167L133.76 25.1102L138.167 33H136.117Z" fill="#0D114F"/>
<path d="M123.372 33V30.6269H125.745V33H123.372Z" fill="url(#paint0_linear)"/>
<rect width="43.832" height="43.832" rx="7.88976" fill="url(#paint1_linear)"/>
<g filter="url(#filter0_di)">
<path d="M33.258 32.4131H29.3487C29.1852 32.4131 29.0508 32.2854 29.0363 32.1226C29.0317 32.0711 29.0267 32.0211 29.0214 31.9726C28.7973 29.9298 26.5982 28.1753 24.5583 28.4238C23.0692 28.6052 21.8351 29.7293 20.3445 29.8976C19.3393 30.0111 18.4621 29.9594 17.4596 29.7629C16.5809 29.5908 15.7327 29.2757 14.952 28.8372C13.1132 27.8044 12.126 26.741 11.2107 25.1387C10.681 24.2114 10.303 23.1958 10.1655 22.1368C10.0517 21.2603 10.0589 20.4879 10.1544 19.6373C10.3004 18.3379 10.7168 17.0732 11.3964 15.956C12.3504 14.3877 13.3816 13.4126 15.0616 12.4997C15.7731 12.1131 16.5387 11.8305 17.3296 11.6568C19.3324 11.2169 20.629 11.3458 22.5759 11.956C23.6591 12.2955 24.8356 13.023 25.8362 13.9723C28.0243 16.0482 28.1911 19.3058 28.2464 22.3215C28.2516 22.601 27.996 22.8125 27.7209 22.7627C26.3696 22.5184 25.3981 22.4987 24.0703 22.7098C23.7143 22.7664 23.4214 22.398 23.5175 22.0506C23.5591 21.8998 23.5918 21.7518 23.6163 21.6059C24.0088 19.2711 22.4111 16.606 20.0547 16.3763C18.718 16.246 17.3943 16.7918 16.4138 17.8864C15.8286 18.4381 15.5049 19.3034 15.4028 20.2262C15.1383 22.6173 17.0941 24.9295 19.497 25.0439C19.9555 25.0657 20.3982 24.999 20.8505 24.8457C22.2759 24.3625 23.6654 23.6404 25.1662 23.7534C29.6812 24.0934 32.8523 26.1289 33.6866 31.9218C33.724 32.1814 33.5203 32.4131 33.258 32.4131Z" fill="#FAFAFA"/>
</g>
<defs>
<filter id="filter0_di" x="8.44906" y="11.3964" width="26.8744" height="24.2814" filterUnits="userSpaceOnUse" color-interpolation-filters="sRGB">
<feFlood flood-opacity="0" result="BackgroundImageFix"/>
<feColorMatrix in="SourceAlpha" type="matrix" values="0 0 0 0 0 0 0 0 0 0 0 0 0 0 0 0 0 0 127 0"/>
<feOffset dy="1.63237"/>
<feGaussianBlur stdDeviation="0.816183"/>
<feColorMatrix type="matrix" values="0 0 0 0 0 0 0 0 0 0 0 0 0 0 0 0 0 0 0.07 0"/>
<feBlend mode="normal" in2="BackgroundImageFix" result="effect1_dropShadow"/>
<feBlend mode="normal" in="SourceGraphic" in2="effect1_dropShadow" result="shape"/>
<feColorMatrix in="SourceAlpha" type="matrix" values="0 0 0 0 0 0 0 0 0 0 0 0 0 0 0 0 0 0 127 0" result="hardAlpha"/>
<feOffset dy="1.63237"/>
<feGaussianBlur stdDeviation="1.02023"/>
<feComposite in2="hardAlpha" operator="arithmetic" k2="-1" k3="1"/>
<feColorMatrix type="matrix" values="0 0 0 0 0.219608 0 0 0 0 0.533333 0 0 0 0 1 0 0 0 0.13 0"/>
<feBlend mode="normal" in2="shape" result="effect2_innerShadow"/>
</filter>
<linearGradient id="paint0_linear" x1="189.169" y1="-59.0291" x2="177.57" y2="54.1337" gradientUnits="userSpaceOnUse">
<stop stop-color="#F1FF54"/>
<stop offset="0.515625" stop-color="#428EFF"/>
<stop offset="1" stop-color="#297FFF"/>
</linearGradient>
<linearGradient id="paint1_linear" x1="52.463" y1="-66.3077" x2="19.6129" y2="48.5381" gradientUnits="userSpaceOnUse">
<stop stop-color="#F1FF54"/>
<stop offset="0.515625" stop-color="#F1FF54"/>
<stop offset="1" stop-color="#F1FF54"/>
</linearGradient>
</defs>
</svg>
